<?xml version="1.0" standalone="no"?>
<!DOCTYPE svg PUBLIC "-//W3C//DTD SVG 20010904//EN"
 "http://www.w3.org/TR/2001/REC-SVG-20010904/DTD/svg10.dtd">
<svg version="1.0" xmlns="http://www.w3.org/2000/svg"
 width="1262.000000pt" height="407.000000pt" viewBox="0 0 1262.000000 407.000000"
 preserveAspectRatio="xMidYMid meet">

<g transform="translate(0.000000,407.000000) scale(0.100000,-0.100000)"
fill="#ffffff" stroke="none">
<path d="M880 3810 l0 -140 5528 2 5527 3 0 135 0 135 -5527 3 -5528 2 0 -140z"/>
<path d="M8426 2598 c-14 -20 -16 -82 -16 -541 l0 -518 25 -25 c19 -19 31 -23
48 -18 48 14 47 3 47 420 0 217 3 394 8 394 4 0 34 -58 67 -128 33 -70 100
-210 148 -312 49 -102 107 -223 128 -270 22 -47 47 -91 56 -97 24 -18 57 -16
75 5 13 14 128 252 354 727 l42 90 1 -388 c1 -244 5 -395 11 -407 18 -34 46
-42 80 -25 l30 16 0 534 c0 590 2 570 -63 563 -35 -4 -16 31 -297 -540 -105
-214 -194 -388 -198 -388 -4 0 -111 208 -237 463 -226 455 -230 462 -262 465
-23 2 -35 -3 -47 -20z"/>
<path d="M2286 2589 l-26 -20 0 -529 0 -529 26 -20 c34 -27 40 -26 69 4 l25
24 0 421 c0 231 3 420 8 419 4 0 16 -12 28 -27 65 -83 508 -657 558 -721 113
-147 134 -161 174 -118 l22 23 0 527 c0 518 0 527 -21 548 -22 22 -50 19 -81
-9 -16 -14 -18 -51 -20 -441 l-3 -426 -214 275 c-118 151 -228 293 -245 315
-17 22 -35 45 -41 51 -5 7 -48 61 -95 122 -70 91 -112 132 -134 132 -2 0 -15
-9 -30 -21z"/>
<path d="M6541 2594 c-421 -113 -560 -652 -247 -959 224 -219 569 -215 791 10
116 117 165 242 165 422 0 94 -3 109 -32 175 -109 248 -287 369 -538 367 -47
0 -109 -7 -139 -15z m336 -144 c123 -60 216 -179 244 -311 17 -77 6 -191 -26
-276 -23 -62 -37 -82 -98 -139 -82 -77 -143 -109 -245 -124 -97 -15 -184 0
-275 47 -344 181 -298 701 73 825 43 14 78 17 157 15 92 -3 109 -7 170 -37z"/>
<path d="M7426 2594 c-21 -20 -20 -68 1 -85 13 -11 87 -15 351 -19 l334 -5
-79 -100 c-91 -115 -437 -559 -560 -718 -71 -91 -84 -114 -81 -140 5 -56 13
-57 451 -57 384 0 398 1 417 20 25 25 26 62 2 83 -17 15 -56 17 -350 17 -183
0 -332 3 -332 8 0 4 21 34 47 67 26 33 93 119 148 190 55 72 183 236 285 365
231 295 240 308 240 335 0 12 -8 29 -18 38 -17 15 -61 17 -430 17 -360 0 -413
-2 -426 -16z"/>
<path d="M10083 2598 c-13 -6 -25 -20 -29 -32 -4 -12 -15 -39 -25 -61 -10 -22
-34 -80 -54 -130 -39 -96 -53 -130 -190 -460 -172 -414 -168 -399 -119 -432
30 -19 63 -8 81 28 7 13 67 157 134 319 207 502 221 535 228 543 4 4 17 -16
29 -45 11 -29 45 -111 74 -183 30 -71 103 -248 163 -391 86 -209 112 -264 131
-273 33 -14 72 2 80 33 7 30 1 45 -151 411 -64 154 -150 363 -192 465 -89 216
-104 235 -160 208z"/>
<path d="M3327 2582 c-15 -17 -17 -69 -17 -546 l0 -527 25 -24 24 -25 321 0
c307 0 321 1 340 20 25 25 26 62 2 83 -16 15 -56 17 -303 19 l-284 3 -3 448
-2 447 283 0 c271 0 284 1 305 20 27 25 28 61 4 83 -17 15 -56 17 -349 17
-307 0 -331 -1 -346 -18z"/>
<path d="M4591 2584 c-204 -55 -362 -222 -406 -431 -62 -293 112 -585 400
-669 81 -24 221 -24 305 -1 114 31 250 125 250 172 0 53 -79 74 -119 31 -37
-39 -140 -85 -219 -97 -60 -9 -87 -8 -155 6 -174 35 -295 153 -342 330 -53
205 48 422 241 516 67 33 73 34 189 34 110 0 125 -2 178 -27 32 -15 70 -37 84
-48 14 -11 35 -20 47 -20 58 1 82 75 35 111 -40 32 -140 78 -204 94 -74 19
-212 18 -284 -1z"/>
<path d="M5287 2572 c-10 -11 -17 -36 -17 -60 l0 -42 235 0 c252 0 282 -5 333
-53 85 -79 81 -221 -8 -282 -72 -50 -98 -54 -337 -55 l-223 0 0 -287 c0 -159
4 -293 8 -299 16 -24 51 -35 75 -23 12 7 25 17 29 23 4 6 8 113 8 237 l0 226
187 7 c226 9 270 22 348 100 87 88 114 182 84 299 -13 55 -67 128 -121 165
-82 56 -119 62 -363 62 -202 0 -223 -2 -238 -18z"/>
<path d="M3480 2030 l0 -60 188 0 c170 0 191 2 205 18 21 23 22 66 1 86 -13
13 -46 16 -205 16 l-189 0 0 -60z"/>
<path d="M5650 1931 c0 -6 51 -112 112 -237 121 -243 136 -261 184 -230 44 29
40 45 -68 263 l-103 208 -62 3 c-38 2 -63 -1 -63 -7z"/>
<path d="M880 355 l0 -135 5530 0 5530 0 0 135 0 135 -5530 0 -5530 0 0 -135z"/>
</g>
</svg>
